<svg width="40" height="40" fill="none" xmlns="http://www.w3.org/2000/svg"><path d="M20 0C8.956 0 0 8.955 0 20c0 8.19 4.924 15.225 11.972 18.319-.057-1.397-.011-3.074.348-4.592l2.573-10.898s-.639-1.277-.639-3.164c0-2.964 1.718-5.179 3.857-5.179 1.819 0 2.698 1.366 2.698 3.003 0 1.828-1.166 4.562-1.766 7.097-.502 2.123 1.064 3.853 3.157 3.853 3.79 0 6.34-4.867 6.34-10.634 0-4.382-2.95-7.663-8.32-7.663-6.068 0-9.847 4.524-9.847 9.577 0 1.744.514 2.972 1.319 3.922.37.438.42.613.287 1.116-.096.368-.317 1.253-.407 1.604-.133.507-.543.688-1.002.501-2.794-1.141-4.096-4.201-4.096-7.641 0-5.682 4.791-12.494 14.294-12.494 7.636 0 12.662 5.526 12.662 11.459 0 7.844-4.362 13.706-10.792 13.706-2.158 0-4.19-1.168-4.885-2.493 0 0-1.161 4.607-1.407 5.498-.424 1.543-1.254 3.084-2.013 4.285 1.84.544 3.749.82 5.668.82C31.045 40.001 40 31.046 40 20 40 8.955 31.045 0 20 0Z" fill="#FF8A00"/></svg>