<svg width="40" height="40" fill="none" xmlns="http://www.w3.org/2000/svg"><path fill-rule="evenodd" clip-rule="evenodd" d="M35.795 7.735A19.9 19.9 0 0 1 40 20c0 11.044-8.956 20-20 20-7.77 0-14.507-4.434-17.818-10.908h8.717c4.154 0 7.055-2.24 7.055-5.818 0-7.585-8.75-4.495-8.75-7.187 0-1.297 1.04-1.769 2.945-1.769h6.066c1.682 0 3.66.302 3.66 2.137v6.044c0 4.377 3.418 6.592 6.96 6.592 3.603 0 6.96-2.215 6.96-6.592V7.735Z" fill="#FF8A00"/><path fill-rule="evenodd" clip-rule="evenodd" d="M20 0a19.906 19.906 0 0 1 11.25 3.465V22.64a2.423 2.423 0 0 1-2.414 2.417 2.423 2.423 0 0 1-2.415-2.417v-5.746c0-4.587-2.322-6.495-5.345-6.495h-9.84c-3.563 0-6.519 2.267-6.519 5.863 0 1.84.788 4.536 4.516 5.205 3.037.547 4.235.388 4.235 2.012 0 1.578-1.767 1.578-4.1 1.578H.647A19.969 19.969 0 0 1 0 20C0 8.958 8.957 0 20 0Z" fill="#FF8A00"/></svg>