<svg width="39" height="39" fill="none" xmlns="http://www.w3.org/2000/svg"><path d="M38.4 19.2a19.2 19.2 0 1 1-38.4 0 19.2 19.2 0 0 1 38.4 0Zm-18.511-5.026c-1.868.778-5.602 2.386-11.199 4.824-.907.36-1.385.716-1.428 1.061-.072.583.66.814 1.656 1.128l.42.132c.98.32 2.3.691 2.983.706.624.014 1.318-.24 2.084-.768 5.23-3.53 7.93-5.314 8.097-5.352.12-.029.288-.063.399.038.112.099.1.288.088.339-.072.31-2.944 2.978-4.43 4.36-.463.432-.792.737-.86.807-.147.151-.298.3-.45.446-.912.879-1.594 1.536.036 2.611.784.519 1.413.944 2.04 1.37.681.466 1.363.93 2.246 1.51.223.144.44.3.648.45.794.566 1.512 1.074 2.393.993.513-.048 1.044-.528 1.313-1.968.636-3.401 1.886-10.767 2.174-13.803a3.415 3.415 0 0 0-.031-.756.808.808 0 0 0-.274-.52 1.263 1.263 0 0 0-.744-.224c-.72.012-1.831.399-7.161 2.616Z" fill="#FF8A00"/></svg>